<svg width="20" height="20" viewBox="0 0 20 20" fill="none" xmlns="http://www.w3.org/2000/svg">
<path d="M10.0006 1.19092e-06C12.0129 -0.00112318 13.9437 0.793948 15.3707 2.21289C16.0762 2.91421 16.6369 3.74858 17.0191 4.66699C17.3068 5.35834 17.4882 6.08755 17.5611 6.83008C17.8271 6.85696 18.0881 6.92115 18.3355 7.02344L18.4752 7.08594C19.0308 7.35311 19.4783 7.80302 19.7418 8.36035C20.0053 8.91757 20.0694 9.54864 19.9234 10.1475L19.9225 10.1484L18.358 16.5547C18.3563 16.5615 18.354 16.5684 18.3521 16.5752C18.0989 17.4981 17.5675 18.3186 16.8326 18.9268L16.6832 19.0459C15.8702 19.6645 14.8756 19.999 13.8531 19.999H6.14511C5.18641 19.999 4.25226 19.7049 3.46933 19.1582L3.31503 19.0459C2.50264 18.428 1.91623 17.5595 1.64609 16.5752C1.64424 16.5685 1.64188 16.5615 1.64023 16.5547L0.0757744 10.1465C-0.0204158 9.74986 -0.0250846 9.33523 0.0621026 8.93652C0.149346 8.53791 0.325759 8.16395 0.578704 7.84375L0.677337 7.72656C0.913795 7.46004 1.20055 7.2418 1.52206 7.08594C1.81053 6.94612 2.12141 6.86038 2.43906 6.8291C2.51191 6.08688 2.69457 5.35809 2.98202 4.66699C3.36406 3.74859 3.92419 2.9143 4.62949 2.21289C6.05635 0.793915 7.98828 -0.00101284 10.0006 1.19092e-06ZM2.56699 8.32324C2.43178 8.33871 2.2994 8.37689 2.17636 8.43652C2.01245 8.51605 1.8685 8.63152 1.75546 8.77442C1.64371 8.91602 1.56548 9.08159 1.52695 9.25781C1.48855 9.4337 1.49054 9.61603 1.53281 9.79102L3.09531 16.1895C3.27964 16.8518 3.67583 17.4362 4.22324 17.8525C4.77418 18.2718 5.44971 18.499 6.14511 18.499H13.8531C14.5485 18.499 15.224 18.2717 15.775 17.8525C16.3253 17.434 16.7228 16.8455 16.9059 16.1787L18.4654 9.79199C18.5299 9.52719 18.5018 9.24837 18.3853 9.00195C18.2688 8.75549 18.0714 8.55571 17.8258 8.4375C17.7009 8.37755 17.5672 8.3393 17.4303 8.32324L17.2916 8.31543H2.70273L2.56699 8.32324ZM5.33749 15.3545V11.459C5.33752 11.0448 5.67329 10.709 6.08749 10.709C6.5016 10.7091 6.83747 11.0449 6.83749 11.459V15.3545C6.83724 15.7684 6.50146 16.1044 6.08749 16.1045C5.67344 16.1045 5.33775 15.7685 5.33749 15.3545ZM9.25058 15.3545V11.459C9.2506 11.0448 9.58638 10.709 10.0006 10.709C10.4147 10.7091 10.7506 11.0449 10.7506 11.459V15.3545C10.7503 15.7684 10.4145 16.1043 10.0006 16.1045C9.58652 16.1045 9.25083 15.7685 9.25058 15.3545ZM13.1637 15.3545V11.459C13.1637 11.0448 13.4995 10.709 13.9137 10.709C14.3277 10.7092 14.6636 11.0449 14.6637 11.459V15.3545C14.6634 15.7684 14.3276 16.1043 13.9137 16.1045C13.4996 16.1045 13.1639 15.7685 13.1637 15.3545ZM9.9996 1.49902C8.38368 1.49801 6.8329 2.13691 5.6871 3.27637C5.12194 3.83841 4.6739 4.50724 4.36777 5.24317C4.15813 5.74713 4.01926 6.2761 3.95175 6.81543H16.0494C15.9818 6.2761 15.8431 5.7471 15.6334 5.24317C15.3271 4.50724 14.8784 3.83931 14.3131 3.27734C13.1673 2.13797 11.6155 1.49796 9.9996 1.49902Z" fill="black"/>
</svg>
