<svg width="18" height="22" viewBox="0 0 18 22" fill="none" xmlns="http://www.w3.org/2000/svg">
<path d="M10 4.75004C10 4.41852 9.86821 4.10068 9.63379 3.86625C9.42878 3.66124 9.16001 3.5344 8.87402 3.5059L8.75 3.50004C8.41848 3.50004 8.10063 3.63183 7.86621 3.86625C7.63179 4.10068 7.5 4.41852 7.5 4.75004C7.5 5.08156 7.63179 5.39941 7.86621 5.63383C8.10063 5.86825 8.41848 6.00004 8.75 6.00004L8.87402 5.99418C9.16001 5.96568 9.42878 5.83884 9.63379 5.63383C9.86821 5.39941 10 5.08156 10 4.75004ZM11.5 4.75004C11.5 5.47939 11.2101 6.17866 10.6943 6.69438C10.243 7.14571 9.65113 7.42392 9.02148 7.48637L8.75 7.50004C8.02065 7.50004 7.32139 7.2101 6.80566 6.69438C6.28994 6.17866 6 5.47939 6 4.75004C6 4.0207 6.28994 3.32143 6.80566 2.80571C7.16906 2.44231 7.62418 2.19387 8.11621 2.07719C8.37326 1.29662 9.08971 0.392168 10.5684 0.0225047C10.9701 -0.0778063 11.3771 0.166634 11.4775 0.568403C11.5779 0.970175 11.3334 1.37714 10.9316 1.47758C10.2908 1.63784 9.93176 1.9225 9.7334 2.18461C10.0903 2.32142 10.4189 2.53024 10.6943 2.80571C11.2101 3.32143 11.5 4.0207 11.5 4.75004Z" fill="#EEE8AA"/>
<path d="M11.4697 11.0372C11.823 11.0372 12.1287 11.2836 12.2031 11.629C12.4088 12.5842 13.2856 13.0634 14.2725 12.9717C15.2557 12.8803 15.9999 12.2578 16 11.2842C16 10.2318 14.8751 9.30982 13.6543 9.56547C13.3407 9.6312 13.0194 9.49016 12.8555 9.21489C12.6916 8.93939 12.7212 8.59004 12.9287 8.34575C13.3103 7.8965 13.3009 7.27068 12.8467 6.627C12.3889 5.97847 11.5808 5.50004 10.75 5.50004V4.00004C12.129 4.00004 13.3703 4.76796 14.0723 5.76274C14.5363 6.42033 14.8047 7.25699 14.6611 8.07719C16.2007 8.34791 17.5 9.6221 17.5 11.2842C17.4999 13.2624 15.9132 14.3263 14.4111 14.4659C13.3745 14.5622 12.2112 14.235 11.4561 13.3907C10.7543 14.1464 9.71342 14.5 8.75 14.5C7.78637 14.5 6.74472 14.1467 6.04297 13.3907C5.2878 14.2349 4.12545 14.5623 3.08887 14.4659C1.58675 14.3261 9.58637e-05 13.2623 0 11.2842C0 9.62235 1.29834 8.34812 2.83789 8.07719C2.69461 7.25702 2.96475 6.42022 3.42871 5.76274C4.13062 4.76812 5.37139 4.00004 6.75 4.00004V5.50004C5.91987 5.50004 5.11221 5.97841 4.6543 6.627C4.20002 7.27076 4.19019 7.89661 4.57129 8.34575C4.77869 8.59007 4.8084 8.93947 4.64453 9.21489C4.4807 9.48999 4.16009 9.6309 3.84668 9.56547C2.62474 9.30953 1.5 10.2316 1.5 11.2842C1.50009 12.2579 2.24434 12.8812 3.22754 12.9727C4.21422 13.0645 5.09114 12.5847 5.29688 11.629L5.33496 11.5049C5.44797 11.2261 5.72095 11.0372 6.03027 11.0372C6.38342 11.0373 6.68821 11.2837 6.7627 11.629C6.9466 12.4823 7.75831 13 8.75 13C9.74169 13 10.5534 12.4823 10.7373 11.629L10.7754 11.504C10.8886 11.2257 11.1609 11.0373 11.4697 11.0372Z" fill="#EEE8AA"/>
<path d="M14.0293 13.544C14.1431 13.1458 14.5578 12.9156 14.9561 13.0293C15.3542 13.1432 15.5845 13.5579 15.4707 13.9561L14.2998 18.0547C14.1052 18.7358 13.9423 19.3094 13.7549 19.7588C13.5599 20.2263 13.31 20.634 12.8984 20.9454L12.8975 20.9463C12.4848 21.2572 12.0237 21.3854 11.5205 21.4444C11.037 21.501 10.4413 21.5 9.7334 21.5H7.7666C7.0586 21.5 6.46287 21.501 5.97949 21.4444C5.4763 21.3854 5.0163 21.2567 4.60352 20.9463L4.60156 20.9454C4.18976 20.6338 3.93989 20.2261 3.74512 19.7588C3.55794 19.3097 3.39521 18.7363 3.2002 18.0557L2.0293 13.9561C1.91553 13.5579 2.14576 13.1432 2.54395 13.0293C2.94217 12.9156 3.35686 13.1458 3.4707 13.544L4.64258 17.6426C4.84754 18.3579 4.98407 18.8318 5.12988 19.1817C5.26732 19.5114 5.38349 19.6547 5.50488 19.7471L5.6084 19.8135C5.7249 19.8749 5.88746 19.9238 6.1543 19.9551C6.53026 19.9992 7.02301 20 7.7666 20H9.7334C10.4767 20 10.9696 19.9991 11.3457 19.9551C11.6995 19.9137 11.8691 19.8402 11.9912 19.7491C12.1135 19.6565 12.2329 19.5129 12.3711 19.1817C12.5169 18.8321 12.6531 18.3576 12.8574 17.6426L14.0293 13.544Z" fill="#EEE8AA"/>
</svg>
