<svg width="19" height="19" viewBox="0 0 19 19" fill="none" xmlns="http://www.w3.org/2000/svg">
<path d="M0 16.0001V7.00011C0 6.20446 0.316297 5.44162 0.878906 4.87901C1.44152 4.3164 2.20435 4.00011 3 4.00011H4C4.55228 4.00011 5 4.44782 5 5.00011C5 5.55239 4.55228 6.00011 4 6.00011H3C2.73478 6.00011 2.4805 6.10554 2.29297 6.29308C2.10543 6.48061 2 6.73489 2 7.00011V16.0001L2.00488 16.0987C2.02757 16.3277 2.12883 16.543 2.29297 16.7071C2.48051 16.8947 2.73478 17.0001 3 17.0001H12C12.2652 17.0001 12.5195 16.8947 12.707 16.7071C12.8946 16.5196 13 16.2653 13 16.0001V15.0001C13 14.4478 13.4477 14.0001 14 14.0001C14.5523 14.0001 15 14.4478 15 15.0001V16.0001C15 16.7958 14.6837 17.5586 14.1211 18.1212C13.5585 18.6838 12.7957 19.0001 12 19.0001H3C2.20435 19.0001 1.44151 18.6838 0.878906 18.1212C0.316297 17.5586 0 16.7958 0 16.0001Z" fill="#EEE8AA"/>
<path d="M17 3.10059C17 2.80882 16.884 2.52858 16.6777 2.32227C16.4715 2.11608 16.192 2.0001 15.9004 2C15.6086 2 15.3284 2.11596 15.1221 2.32227L15.1211 2.32324L14.4277 3.01367L15.9854 4.57129L16.6777 3.87793C16.8839 3.67173 16.9999 3.39218 17 3.10059ZM7 10.415V12H8.58496L14.5742 5.98828L13.0107 4.4248L7 10.415ZM19 3.10059C18.9999 3.92194 18.6732 4.70891 18.0928 5.29004L16.8242 6.56348C16.7898 6.61371 16.7516 6.66241 16.707 6.70703C16.6643 6.74978 16.6173 6.78595 16.5693 6.81934L9.70801 13.7061C9.52039 13.8942 9.26573 14 9 14H6C5.44772 14 5 13.5523 5 13V10C5.00003 9.73431 5.10581 9.47958 5.29395 9.29199L12.1768 2.43262C12.2107 2.38355 12.2493 2.33664 12.293 2.29297C12.3377 2.24822 12.3861 2.2093 12.4365 2.1748L13.709 0.907227C14.2903 0.326427 15.0786 -1.06046e-08 15.9004 0C16.7224 0.000103538 17.5105 0.326946 18.0918 0.908203C18.6732 1.48959 19 2.27839 19 3.10059Z" fill="#EEE8AA"/>
</svg>
