<svg width="18" height="19" viewBox="0 0 18 19" fill="none" xmlns="http://www.w3.org/2000/svg">
<path d="M0 17.25V16.0039C4.38039e-05 14.2215 1.25299 12.7693 2.85352 11.8066C4.4762 10.8307 6.61199 10.25 8.75 10.25C10.8878 10.25 13.0243 10.8308 14.6475 11.8066C16.248 12.769 17.502 14.2211 17.5 16.0039V17.25C17.5 17.7141 17.3155 18.1591 16.9873 18.4873C16.6591 18.8155 16.2141 19 15.75 19H1.75C1.28587 19 0.840885 18.8155 0.512695 18.4873C0.184507 18.1591 0 17.7141 0 17.25ZM11.6035 4.35352C11.6034 3.59688 11.3035 2.87103 10.7686 2.33594C10.3003 1.86764 9.68553 1.57857 9.03223 1.51367L8.75 1.5C7.99307 1.5 7.26667 1.80071 6.73145 2.33594C6.19648 2.87103 5.89661 3.59688 5.89648 4.35352C5.89648 4.72831 5.96985 5.10003 6.11328 5.44629C6.25666 5.7924 6.46657 6.10713 6.73145 6.37207C6.99646 6.63709 7.31194 6.84778 7.6582 6.99121C8.00433 7.13451 8.37538 7.20801 8.75 7.20801C9.12462 7.20801 9.49567 7.13451 9.8418 6.99121C10.1881 6.84778 10.5035 6.63709 10.7686 6.37207C11.0334 6.10713 11.2433 5.7924 11.3867 5.44629C11.5301 5.10003 11.6035 4.72831 11.6035 4.35352ZM1.5 17.25C1.5 17.3163 1.52636 17.3799 1.57324 17.4268C1.62013 17.4736 1.68369 17.5 1.75 17.5H15.75C15.8163 17.5 15.8799 17.4736 15.9268 17.4268C15.9736 17.3799 16 17.3163 16 17.25V16.0029C16.0015 14.9803 15.2684 13.9307 13.875 13.0928C12.5037 12.2682 10.638 11.75 8.75 11.75C6.86204 11.75 4.99777 12.2683 3.62695 13.0928C2.23408 13.9306 1.50004 14.9804 1.5 16.0039V17.25ZM13.1035 4.35352C13.1035 4.92529 12.9913 5.49226 12.7725 6.02051C12.5537 6.54854 12.2332 7.02844 11.8291 7.43262C11.4248 7.83692 10.9443 8.15814 10.416 8.37695C9.88785 8.59568 9.32167 8.70801 8.75 8.70801C8.17833 8.70801 7.61215 8.59568 7.08398 8.37695C6.55573 8.15814 6.0752 7.83692 5.6709 7.43262C5.26678 7.02844 4.9463 6.54854 4.72754 6.02051C4.50873 5.49226 4.39648 4.92529 4.39648 4.35352C4.39661 3.19905 4.85463 2.09179 5.6709 1.27539C6.48743 0.458857 7.59525 0 8.75 0C9.90475 0 11.0126 0.458857 11.8291 1.27539C12.6454 2.09179 13.1034 3.19905 13.1035 4.35352Z" fill="#EEE8AA"/>
</svg>
